<svg width="56" height="56" viewBox="0 0 56 56" fill="none" xmlns="http://www.w3.org/2000/svg">
<g id="weather">
<g id="Group 7268">
<path id="path40" d="M21.9141 20.5573C21.9141 23.9407 19.1709 26.6836 15.7871 26.6836C12.4033 26.6836 9.66016 23.9407 9.66016 20.5573C9.66016 17.174 12.4033 14.431 15.7871 14.431C19.1709 14.431 21.9141 17.174 21.9141 20.5573Z" fill="#FFC840"/>
<path id="path42" d="M15.7854 12.1016C15.3797 12.1016 15.0508 11.772 15.0508 11.367V6.14247C15.0508 5.73515 15.3797 5.40787 15.7854 5.40787C16.191 5.40787 16.5197 5.73515 16.5197 6.14247V11.367C16.5197 11.772 16.191 12.1016 15.7854 12.1016Z" fill="#FFC840"/>
<path id="path44" d="M15.7854 35.7051C15.3797 35.7051 15.0508 35.3764 15.0508 34.9707V29.7455C15.0508 29.3382 15.3797 29.0109 15.7854 29.0109C16.191 29.0109 16.5197 29.3382 16.5197 29.7455V34.9707C16.5197 35.3764 16.191 35.7051 15.7854 35.7051Z" fill="#FFC840"/>
<path id="path46" d="M21.7659 14.5793C21.4791 14.2921 21.4791 13.8259 21.7659 13.5386L25.4609 9.84452C25.7477 9.55728 26.2127 9.55728 26.4995 9.84452C26.7865 10.1318 26.7865 10.5956 26.4995 10.8828L22.8046 14.5793C22.5179 14.8642 22.0526 14.8642 21.7659 14.5793Z" fill="#FFC840"/>
<path id="path48" d="M5.07445 31.2688C4.78768 30.9815 4.78768 30.5153 5.07445 30.2304L8.76953 26.5339C9.0563 26.2467 9.5213 26.2467 9.80831 26.5339C10.0951 26.8212 10.0951 27.2874 9.80831 27.5723L6.11324 31.2688C5.82647 31.5536 5.36123 31.5536 5.07445 31.2688Z" fill="#FFC840"/>
<path id="path50" d="M24.2422 20.5564C24.2422 20.1515 24.5709 19.8218 24.9765 19.8218H30.2022C30.6077 19.8218 30.9366 20.1515 30.9366 20.5564C30.9366 20.9614 30.6077 21.291 30.2022 21.291H24.9765C24.5709 21.291 24.2422 20.9614 24.2422 20.5564Z" fill="#FFC840"/>
<path id="path52" d="M0.636719 20.5564C0.636719 20.1515 0.965634 19.8218 1.37131 19.8218H6.59677C7.00244 19.8218 7.33136 20.1515 7.33136 20.5564C7.33136 20.9614 7.00244 21.291 6.59677 21.291H1.37131C0.965634 21.291 0.636719 20.9614 0.636719 20.5564Z" fill="#FFC840"/>
<path id="path54" d="M21.7659 26.5339C22.0526 26.2467 22.5179 26.2467 22.8046 26.5339L26.4995 30.2304C26.7865 30.5153 26.7865 30.9815 26.4995 31.2688C26.2127 31.5536 25.7477 31.5536 25.4609 31.2688L21.7659 27.5723C21.4791 27.2874 21.4791 26.8212 21.7659 26.5339Z" fill="#FFC840"/>
<path id="path56" d="M5.07445 9.84452C5.36123 9.55728 5.82647 9.55728 6.11324 9.84452L9.80831 13.5386C10.0951 13.8259 10.0951 14.2921 9.80831 14.5793C9.5213 14.8642 9.0563 14.8642 8.76953 14.5793L5.07445 10.8828C4.78768 10.5956 4.78768 10.1318 5.07445 9.84452Z" fill="#FFC840"/>
<path id="path58" d="M43.86 31.2671C43.8403 31.2671 43.8221 31.2718 43.8023 31.2718C44.1654 30.4312 44.3688 29.5059 44.3688 28.5336C44.3688 24.717 41.2753 21.6256 37.4597 21.6256C36.1111 21.6256 34.8566 22.0164 33.7934 22.6851C32.3548 19.1887 28.9182 16.7237 24.9027 16.7237C19.5935 16.7237 15.2895 21.0299 15.2895 26.3392C15.2895 26.7395 15.322 27.1327 15.3696 27.5211C15.3427 27.5211 15.3166 27.5164 15.2895 27.5164C11.7296 27.5164 8.84375 30.403 8.84375 33.9627C8.84375 37.5224 11.7296 40.4082 15.2895 40.4082H43.86C46.3847 40.4082 48.4312 38.3617 48.4312 35.8371C48.4312 33.3126 46.3847 31.2671 43.86 31.2671Z" fill="white"/>
</g>
</g>
</svg>
