<svg width="56" height="56" viewBox="0 0 56 56" fill="none" xmlns="http://www.w3.org/2000/svg">
<g id="weather">
<path id="path36" d="M49.5758 25.6473C49.5586 25.6473 49.5425 25.6522 49.5253 25.6522C49.8436 24.918 50.0218 24.1066 50.0218 23.2529C50.0218 19.9078 47.3099 17.1949 43.9641 17.1949C42.7818 17.1949 41.682 17.5384 40.7496 18.1257C39.4885 15.0594 36.4751 12.899 32.9551 12.899C28.3 12.899 24.5263 16.6722 24.5263 21.329C24.5263 21.6799 24.5547 22.0234 24.5965 22.3644C24.5729 22.3644 24.55 22.3619 24.5263 22.3619C21.4052 22.3619 18.875 24.8906 18.875 28.0117C18.875 31.1328 21.4052 33.6641 24.5263 33.6641H49.5758C51.7895 33.6641 53.5837 31.8696 53.5837 29.6569C53.5837 27.4418 51.7895 25.6473 49.5758 25.6473Z" fill="#CECECE"/>
<path id="path38" d="M39.5316 30.9208C39.5107 30.9208 39.4915 30.9257 39.4706 30.9257C39.8544 30.0372 40.0697 29.0591 40.0697 28.0311C40.0697 23.9966 36.7995 20.7286 32.7657 20.7286C31.34 20.7286 30.0142 21.1418 28.8899 21.8486C27.3692 18.1526 23.7364 15.5467 19.4918 15.5467C13.8793 15.5467 9.32929 20.0989 9.32929 25.7115C9.32929 26.1346 9.36363 26.5502 9.41416 26.9609C9.38554 26.9609 9.35792 26.9559 9.32929 26.9559C5.5663 26.9559 2.51562 30.0073 2.51562 33.7703C2.51562 37.5333 5.5663 40.584 9.32929 40.584H39.5316C42.2004 40.584 44.3641 38.4206 44.3641 35.7518C44.3641 33.0831 42.2004 30.9208 39.5316 30.9208Z" fill="white"/>
</g>
</svg>
