<svg width="56" height="56" viewBox="0 0 56 56" fill="none" xmlns="http://www.w3.org/2000/svg">
<g id="weather">
<g id="Group 7275">
<path id="path60" d="M42.415 27.1646C42.3964 27.1646 42.3794 27.1697 42.361 27.1699C42.7018 26.3816 42.8928 25.5133 42.8928 24.5999C42.8928 21.0181 39.989 18.1144 36.4073 18.1144C35.1414 18.1144 33.9641 18.4828 32.9658 19.11C31.6155 15.8281 28.3898 13.5156 24.6208 13.5156C19.637 13.5156 15.5971 17.5555 15.5971 22.5393C15.5971 22.9159 15.6276 23.2849 15.6725 23.6494C15.6471 23.6491 15.6225 23.6456 15.5971 23.6456C12.2558 23.6456 9.54688 26.3544 9.54688 29.696C9.54688 33.0373 12.2558 35.7461 15.5971 35.7461H42.415C44.7848 35.7461 46.7057 33.8252 46.7057 31.4554C46.7057 29.0856 44.7848 27.1646 42.415 27.1646Z" fill="white"/>
<path id="path62" d="M21.4371 46.3176C20.7083 47.8339 18.8881 48.4724 17.3718 47.7435C15.8555 47.0147 15.2171 45.1945 15.9459 43.6782C16.675 42.1619 21.3883 39.3875 21.3883 39.3875C21.3883 39.3875 22.166 44.8013 21.4371 46.3176Z" fill="#1F78FF"/>
<path id="path64" d="M29.0112 46.3176C28.2825 47.8339 26.4624 48.4724 24.9461 47.7435C23.4296 47.0147 22.7913 45.1945 23.5202 43.6782C24.2493 42.1619 28.9626 39.3875 28.9626 39.3875C28.9626 39.3875 29.7403 44.8013 29.0112 46.3176Z" fill="#1F78FF"/>
<path id="path66" d="M36.6949 46.3176C35.966 47.8339 34.1458 48.4724 32.6295 47.7435C31.1133 47.0147 30.475 45.1945 31.2036 43.6782C31.9327 42.1619 36.646 39.3875 36.646 39.3875C36.646 39.3875 37.4237 44.8013 36.6949 46.3176Z" fill="#1F78FF"/>
</g>
</g>
</svg>
