<svg width="56" height="56" viewBox="0 0 56 56" fill="none" xmlns="http://www.w3.org/2000/svg">
<g id="weather">
<g id="Group 7276">
<path id="path80" d="M42.4378 27.4609C42.419 27.4609 42.4021 27.466 42.3833 27.4662C42.7276 26.67 42.9204 25.7929 42.9204 24.8703C42.9204 21.2524 39.9874 18.3193 36.3695 18.3193C35.0908 18.3193 33.9017 18.6915 32.8934 19.325C31.5294 16.01 28.2711 13.6741 24.4642 13.6741C19.4303 13.6741 15.3497 17.7548 15.3497 22.7889C15.3497 23.1693 15.3802 23.5421 15.4256 23.9102C15.3999 23.9099 15.3751 23.9064 15.3497 23.9064C11.9744 23.9064 9.23828 26.6425 9.23828 30.0178C9.23828 33.3928 11.9744 36.1289 15.3497 36.1289H42.4378C44.8315 36.1289 46.772 34.1886 46.772 31.7949C46.772 29.4012 44.8315 27.4609 42.4378 27.4609Z" fill="#B6B6B6"/>
<path id="path82" d="M26.3706 38.8191L24.5 44.6618H27.079L25.4069 50.5918L31.5 42.22H28.3543L29.5445 38.8191H26.3706Z" fill="#FFC840"/>
</g>
</g>
</svg>
