<svg width="56" height="56" viewBox="0 0 56 56" fill="none" xmlns="http://www.w3.org/2000/svg">
<g id="weather">
<g id="Group 7279">
<path id="path18" d="M35.7689 28.2401C35.7689 32.3985 32.3979 35.7695 28.2411 35.7695C24.082 35.7695 20.7109 32.3985 20.7109 28.2401C20.7109 24.0809 24.082 20.7099 28.2411 20.7099C32.3979 20.7099 35.7689 24.0809 35.7689 28.2401Z" fill="#FFC840"/>
<path id="path20" d="M28.2434 17.8496C27.745 17.8496 27.3398 17.4469 27.3398 16.9485V10.5257C27.3398 10.0272 27.745 9.62458 28.2434 9.62458C28.7418 9.62458 29.1444 10.0272 29.1444 10.5257V16.9485C29.1444 17.4469 28.7418 17.8496 28.2434 17.8496Z" fill="#FFC840"/>
<path id="path22" d="M28.2434 46.8555C27.745 46.8555 27.3398 46.4513 27.3398 45.9529V39.5315C27.3398 39.0331 27.745 38.629 28.2434 38.629C28.7418 38.629 29.1444 39.0331 29.1444 39.5315V45.9529C29.1444 46.4513 28.7418 46.8555 28.2434 46.8555Z" fill="#FFC840"/>
<path id="path24" d="M35.5894 20.8949C35.2358 20.5413 35.2358 19.9693 35.5894 19.6182L40.1291 15.076C40.4826 14.7249 41.0547 14.7249 41.4058 15.076C41.7594 15.4295 41.7594 16.0016 41.4058 16.3527L36.8661 20.8949C36.5126 21.246 35.9429 21.246 35.5894 20.8949Z" fill="#FFC840"/>
<path id="path26" d="M15.0769 41.4035C14.7244 41.051 14.7244 40.4794 15.0769 40.1271L19.6174 35.5864C19.9697 35.234 20.5413 35.234 20.8939 35.5864C21.2462 35.9389 21.2462 36.5103 20.8939 36.8628L16.3532 41.4035C16.0006 41.7561 15.4293 41.7561 15.0769 41.4035Z" fill="#FFC840"/>
<path id="path28" d="M38.6289 28.241C38.6289 27.7426 39.034 27.3375 39.5324 27.3375H45.9529C46.4513 27.3375 46.8564 27.7426 46.8564 28.241C46.8564 28.7394 46.4513 29.1445 45.9529 29.1445H39.5324C39.034 29.1445 38.6289 28.7394 38.6289 28.241Z" fill="#FFC840"/>
<path id="path30" d="M9.625 28.241C9.625 27.7426 10.0291 27.3375 10.5276 27.3375H16.9492C17.4476 27.3375 17.8515 27.7426 17.8515 28.241C17.8515 28.7394 17.4476 29.1445 16.9492 29.1445H10.5276C10.0291 29.1445 9.625 28.7394 9.625 28.241Z" fill="#FFC840"/>
<path id="path32" d="M35.5894 35.5864C35.9429 35.234 36.5126 35.234 36.8661 35.5864L41.4058 40.1271C41.7594 40.4794 41.7594 41.051 41.4058 41.4035C41.0547 41.7561 40.4826 41.7561 40.1291 41.4035L35.5894 36.8628C35.2358 36.5103 35.2358 35.9389 35.5894 35.5864Z" fill="#FFC840"/>
<path id="path34" d="M15.0769 15.076C15.4293 14.7249 16.0006 14.7249 16.3532 15.076L20.8939 19.6182C21.2462 19.9693 21.2462 20.5413 20.8939 20.8949C20.5413 21.246 19.9697 21.246 19.6174 20.8949L15.0769 16.3527C14.7244 16.0016 14.7244 15.4295 15.0769 15.076Z" fill="#FFC840"/>
</g>
</g>
</svg>
