<svg width="16" height="17" viewBox="0 0 16 17" fill="none" xmlns="http://www.w3.org/2000/svg">
<path d="M8.0013 8.50065C7.26797 8.50065 6.66797 7.90065 6.66797 7.16732C6.66797 6.43398 7.26797 5.83398 8.0013 5.83398C8.73463 5.83398 9.33463 6.43398 9.33463 7.16732C9.33463 7.90065 8.73463 8.50065 8.0013 8.50065ZM12.0013 7.30065C12.0013 4.88065 10.2346 3.16732 8.0013 3.16732C5.76797 3.16732 4.0013 4.88065 4.0013 7.30065C4.0013 8.86065 5.3013 10.9273 8.0013 13.394C10.7013 10.9273 12.0013 8.86065 12.0013 7.30065ZM8.0013 1.83398C10.8013 1.83398 13.3346 3.98065 13.3346 7.30065C13.3346 9.51398 11.5546 12.134 8.0013 15.1673C4.44797 12.134 2.66797 9.51398 2.66797 7.30065C2.66797 3.98065 5.2013 1.83398 8.0013 1.83398Z" fill="white"/>
</svg>
