<svg width="280" height="280" viewBox="0 0 280 280" fill="none" xmlns="http://www.w3.org/2000/svg">
<path d="M234.506 117.752C234.506 117.752 200.02 137.467 222.497 199.315C242.459 254.242 170.908 261.705 143.089 250.132C107.053 235.14 95.1716 183.309 63.4056 192.49C31.6396 201.672 17.0867 127.762 63.946 111.206C122.237 90.6124 92.5978 65.6997 101.922 43.7895C108.614 28.0644 161.425 12.4067 181.217 46.579C197.871 75.335 210.247 68.783 220.789 67.5466C235.994 65.7625 262.128 96.4885 234.506 117.752Z" fill="#F3EBEA"/>
<path d="M145.639 113.523C145.639 113.523 91.1917 174.681 90.5625 181.463C90.5625 181.463 93.0219 182.553 95.7649 185.732C98.9401 189.413 102.745 190.818 104.651 189.781C107.396 188.289 107.16 186.234 107.16 186.234L149.181 201.455C149.181 201.455 164.021 196.802 194.116 165.431L202.121 153.993L145.639 113.523Z" fill="#883728"/>
<path d="M83.2443 122.359C83.2443 122.359 89.9455 127.166 97.9542 122.634L123.143 108.177C123.143 108.177 131.719 101.847 140.538 107.936C140.538 107.936 132.525 127.4 149.034 130.731C149.034 130.731 165.145 138.115 173.67 145.695C177.956 149.508 187.124 155.976 191.483 159.629C192.653 160.608 195.046 162.071 196.26 163.538C197.947 165.575 201.169 170.018 195.999 174.328C195.999 174.328 192.553 178.376 185.649 174.115C179.232 170.156 168.046 160.972 161.266 156.699C160.898 156.468 159.218 156.125 161.562 158.412C164.453 161.23 177.956 171.211 177.956 171.211C177.956 171.211 183.006 174.718 184.206 176.499C185.26 178.06 186.882 181.489 183.862 185.212C183.862 185.212 179.572 190.866 172.219 186.373L155.335 174.587C155.335 174.587 151.744 172.269 154.631 175.652C154.631 175.652 171.766 187.691 172.44 189.523C174.361 194.745 170.644 201.462 162.294 198.22L142.949 187.643C142.949 187.643 141.181 187.384 142.628 188.794C142.628 188.794 160.577 198.057 161.82 199.075C163.447 200.406 159.498 206.679 151.315 204.166C139.645 200.584 116.056 194.134 104.649 189.781C100.636 188.25 92.392 184.16 89.2146 182.237C89.2146 182.237 76.469 174.216 59.0156 173.882L71.59 120.286L83.2443 122.359Z" fill="#DAC1BC"/>
<path d="M102.738 193.395C102.738 193.395 106.424 188.526 108.702 186.765C113.325 183.194 121.664 186.655 122.069 191.032C122.069 191.032 123.867 195.333 116.412 201.675C115.033 202.847 110.653 205.632 104.249 200.369C104.249 200.37 100.428 196.856 102.738 193.395Z" fill="#AF796F"/>
<path d="M110.125 150.117C110.125 150.117 120.804 158.575 131.859 133.414C131.859 133.414 137.742 135.464 146.88 130.164L148.784 127.203C148.784 127.203 130.224 129.179 130.306 129.544C130.388 129.908 110.125 150.117 110.125 150.117Z" fill="#883728"/>
<path d="M118.62 202.916C118.489 199.687 123.015 193.763 124.996 191.672C127.331 189.208 136.523 186.853 137.591 196.639C137.591 196.639 137.021 203.497 131.915 207.407C129.487 209.266 118.898 209.762 118.62 202.916Z" fill="#AF796F"/>
<path d="M139.226 198.031C140.79 195.543 148.545 194.356 148.718 201.501C148.784 204.207 147.374 208.667 143.356 210.435C140.435 211.72 132.726 209.628 134.191 206.495C135.198 204.342 135.69 203.653 139.226 198.031Z" fill="#AF796F"/>
<path d="M89.0367 187.015C89.7105 185.534 90.8239 184.113 93.0472 182.322C94.3925 181.239 98.1725 180.818 100.446 182.238C102.077 183.258 105.294 185.647 104.573 187.772C103.201 191.81 100.877 197.281 95.8436 195.7C95.8433 195.7 86.0326 193.618 89.0367 187.015Z" fill="#AF796F"/>
<path d="M81.2343 117.085L70.9618 183.865L37.9766 177.517L52.5952 109.488L81.2343 117.085Z" fill="#883728"/>
<path d="M92.6713 184.765C92.6713 184.765 91.0586 189.34 93.922 191.263C93.922 191.263 97.6068 195.685 102.168 188.38C102.928 187.163 101.229 185.015 98.2182 184.211C98.2183 184.211 95.3663 183.113 92.6713 184.765Z" fill="#F3EBEA"/>
<path d="M107.269 192.993C107.269 192.993 109.147 188.791 110.741 188.145C112.383 187.48 117.317 187.373 119.39 192.219C119.747 193.053 118.459 194.793 117.879 195.716C116.811 197.419 114.053 199.968 110.846 198.217C110.845 198.217 106.743 196.736 107.269 192.993Z" fill="#F3EBEA"/>
<path d="M124.056 196.588C124.502 195.368 126.231 193.143 127.804 192.986C130.392 192.728 136.37 194.648 134.79 198.475C134.79 198.475 133.434 201.72 130.524 202.476C130.524 202.476 125.477 204.286 123.61 199.589C123.329 198.884 123.798 197.301 124.056 196.588Z" fill="#F3EBEA"/>
<path d="M137.759 203.927C138.504 205.786 141.7 207.707 143.651 205.936C144.442 205.219 146.071 202.819 146.16 201.756C146.309 199.958 142.77 196.161 139.67 199.697C138.939 200.531 137.346 202.897 137.759 203.927Z" fill="#F3EBEA"/>
<path d="M152.933 106.202C152.933 106.202 142.14 102.798 133.884 111.087L120.046 119.56C120.046 119.56 114.144 121.517 112.318 129.414L106.032 142.484C106.032 142.484 100.953 151.452 115.764 150.224C115.764 150.224 124.24 146.641 130.97 133.03L130.923 131.292C130.923 131.292 131.882 133.436 136.774 132.575C136.774 132.575 141.826 130.827 148.813 128.513C148.813 128.513 149.947 129.893 156.659 133.579C156.659 133.579 173.069 142.165 176.884 146.743L196.544 161.706C196.544 161.706 199.596 160.487 207.19 148.677L224.134 142.654L206.358 94.1562C206.358 94.1562 179.293 104.756 171.346 105.548L152.933 106.202Z" fill="#AF796F"/>
<path d="M194.531 95.3364L217.946 150.458L242.864 140.787L218.386 84.9941L194.531 95.3364Z" fill="#DAC1BC"/>
<path d="M109.153 135.993C109.153 135.993 115.102 133.742 116.855 137.86C116.855 137.86 115.048 145.201 113.015 146.829C111.443 148.089 106.225 148.604 105.199 145.918C105.199 145.918 104.553 143.15 109.153 135.993Z" fill="#F3EBEA"/>
<path d="M162.789 136.956C162.789 136.956 173.854 141.501 185.032 132.547C185.032 132.547 177.354 142.894 167.018 139.454L162.789 136.956Z" fill="#883728"/>
<path d="M59.7902 171.002C59.8625 171.725 59.7186 172.454 59.3768 173.095C59.0349 173.737 58.5104 174.263 57.8697 174.606C57.229 174.95 56.5008 175.096 55.7771 175.026C55.0535 174.955 54.367 174.672 53.8044 174.211C53.2418 173.751 52.8285 173.134 52.6166 172.438C52.4047 171.743 52.4038 171 52.6141 170.304C52.8243 169.608 53.2362 168.99 53.7977 168.528C54.3592 168.067 55.045 167.782 55.7685 167.709C56.7383 167.613 57.7068 167.906 58.461 168.523C59.2152 169.14 59.6933 170.032 59.7902 171.002Z" fill="white"/>
<path d="M230.801 135.42C230.873 136.143 230.729 136.872 230.387 137.513C230.045 138.155 229.521 138.68 228.88 139.024C228.239 139.367 227.511 139.513 226.788 139.442C226.065 139.372 225.378 139.089 224.816 138.628C224.253 138.168 223.84 137.551 223.628 136.856C223.416 136.16 223.416 135.418 223.626 134.722C223.836 134.026 224.248 133.408 224.809 132.947C225.37 132.485 226.056 132.2 226.779 132.128C227.259 132.08 227.744 132.127 228.206 132.266C228.668 132.406 229.099 132.635 229.472 132.941C229.845 133.247 230.155 133.623 230.383 134.048C230.611 134.474 230.753 134.94 230.801 135.42Z" fill="white"/>
</svg>
